<?xml version="1.0" encoding="utf-8"?>
<!-- Generator: Adobe Illustrator 16.0.0, SVG Export Plug-In . SVG Version: 6.00 Build 0)  -->
<!DOCTYPE svg PUBLIC "-//W3C//DTD SVG 1.1//EN" "http://www.w3.org/Graphics/SVG/1.1/DTD/svg11.dtd">
<svg version="1.1" id="Layer_1" xmlns="http://www.w3.org/2000/svg" xmlns:xlink="http://www.w3.org/1999/xlink" x="0px" y="0px"
	 width="100px" height="100px" viewBox="0 0 100 100" enable-background="new 0 0 100 100" xml:space="preserve">
<g id="Your_Icon">
	<g id="Instagram_Icon">
		<g>
			<path fill="#FFFFFF" d="M67.439,48.502c0,9.467-7.675,17.143-17.143,17.143s-17.142-7.676-17.142-17.143
				c0-2.144,0.411-4.184,1.126-6.075H13.259v25.537c0,10.229,8.292,18.518,18.519,18.518h37.038
				c10.228,0,18.519-8.289,18.519-18.518V42.427H66.311C67.028,44.318,67.439,46.358,67.439,48.502z"/>
			<circle fill="#FFFFFF" cx="50.297" cy="48.501" r="10.288"/>
			<path fill="#FFFFFF" d="M68.815,12.409H32.753v19.311h-4.05V12.685c-1.409,0.234-2.768,0.614-4.049,1.148V31.72h-4.049V16.184
				c-4.457,3.382-7.346,8.719-7.346,14.745v5.422h24.947c3.101-3.084,7.373-4.991,12.091-4.991c4.717,0,8.988,1.907,12.088,4.991
				h24.949v-5.422C87.334,20.701,79.043,12.409,68.815,12.409z M77.089,29.922c0,1.147-0.933,2.082-2.082,2.082h-6.243
				c-1.15,0-2.082-0.931-2.082-2.082v-6.245c0-1.149,0.932-2.082,2.082-2.082h6.243c1.149,0,2.082,0.931,2.082,2.082V29.922z"/>
		</g>
	</g>
</g>
</svg>
