<?xml version="1.0" encoding="utf-8"?>
<!-- Generator: Adobe Illustrator 16.0.0, SVG Export Plug-In . SVG Version: 6.00 Build 0)  -->
<!DOCTYPE svg PUBLIC "-//W3C//DTD SVG 1.1//EN" "http://www.w3.org/Graphics/SVG/1.1/DTD/svg11.dtd">
<svg version="1.1" id="icon" xmlns="http://www.w3.org/2000/svg" xmlns:xlink="http://www.w3.org/1999/xlink" x="0px" y="0px"
	 width="100px" height="100px" viewBox="0 0 100 100" enable-background="new 0 0 100 100" xml:space="preserve">
<path id="watch" fill="#FFFFFF" d="M29.037,48.444c0,4.89,1.852,9.333,4.889,12.667l4.815,19.186c0.222,0.889,0.963,1.48,1.852,1.48
	h14.519c0.889,0,1.629-0.592,1.852-1.48l2.444-9.631c0.222-1.036-0.37-2.073-1.407-2.369c-1.037-0.223-2.074,0.369-2.371,1.406
	l-2.073,8.223H42.148l-3.259-12.889c2.667,1.481,5.704,2.297,8.963,2.297c10.371,0,18.814-8.445,18.814-18.815
	c0-4.889-1.852-9.333-4.889-12.667l-4.74-19.259c-0.223-0.889-0.963-1.481-1.852-1.481H40.667c-0.889,0-1.629,0.592-1.852,1.481
	l-2.444,9.629c-0.223,1.037,0.37,2.074,1.407,2.371c1.037,0.222,2.074-0.371,2.37-1.408l2-8.222h11.481l3.26,12.889
	c-2.666-1.482-5.703-2.296-8.963-2.296C37.481,29.63,29.037,38.074,29.037,48.444z M47.852,63.407
	c-8.223,0-14.963-6.741-14.963-14.963c0-8.222,6.741-14.963,14.963-14.963c8.222,0,15.037,6.741,15.037,14.963
	C62.889,56.666,56.148,63.407,47.852,63.407z M69.629,52.814c-1.036,0-1.926-0.889-1.926-1.926v-4.814
	c0-1.037,0.89-1.926,1.926-1.926c1.037,0,1.927,0.889,1.927,1.926v4.814C71.556,51.926,70.666,52.814,69.629,52.814z M54.074,51.926
	c0.74,0.74,0.74,2,0,2.74c-0.371,0.371-0.889,0.594-1.334,0.594c-0.518,0-0.963-0.223-1.333-0.594l-4.814-4.814l0,0
	c-0.074-0.074-0.148-0.222-0.222-0.296c0-0.074-0.074-0.074-0.074-0.148c0-0.073-0.074-0.147-0.074-0.147
	c0-0.074-0.074-0.148-0.074-0.223s0-0.074-0.074-0.148c0-0.148-0.074-0.223-0.074-0.37v-9.704c0-1.037,0.889-1.926,1.926-1.926
	s1.926,0.889,1.926,1.926v8.888L54.074,51.926z"/>
</svg>
