<?xml version="1.0" encoding="utf-8"?>
<!-- Generator: Adobe Illustrator 16.0.0, SVG Export Plug-In . SVG Version: 6.00 Build 0)  -->
<!DOCTYPE svg PUBLIC "-//W3C//DTD SVG 1.1//EN" "http://www.w3.org/Graphics/SVG/1.1/DTD/svg11.dtd">
<svg version="1.1" id="icon" xmlns="http://www.w3.org/2000/svg" xmlns:xlink="http://www.w3.org/1999/xlink" x="0px" y="0px"
	 width="100px" height="100px" viewBox="0 0 100 100" enable-background="new 0 0 100 100" xml:space="preserve">
<path id="car" fill="#FFFFFF" d="M56.473,58.861c0,0.963-0.741,1.703-1.704,1.703h-8.444c-0.963,0-1.704-0.74-1.704-1.703
	s0.741-1.704,1.704-1.704h8.444C55.731,57.157,56.473,57.898,56.473,58.861z M75.436,56.713c0,4.444-3.63,8-8,8
	c-4.445,0-8-3.629-8-8c0-4.444,3.629-8,8-8C71.879,48.713,75.436,52.343,75.436,56.713z M72.102,56.713
	c0-2.593-2.074-4.666-4.666-4.666c-2.593,0-4.667,2.073-4.667,4.666s2.074,4.667,4.667,4.667
	C69.953,61.38,72.102,59.306,72.102,56.713z M41.657,56.713c0,4.444-3.63,8-8,8c-4.444,0-8-3.629-8-8c0-4.444,3.63-8,8-8
	C38.102,48.713,41.657,52.343,41.657,56.713z M38.324,56.713c0-2.593-2.074-4.666-4.667-4.666s-4.667,2.073-4.667,4.666
	s2.074,4.667,4.667,4.667S38.324,59.306,38.324,56.713z M33.657,54.639c-0.593,0-1.11,0.223-1.481,0.593
	c-0.37,0.37-0.592,0.963-0.592,1.481c0,0.593,0.222,1.111,0.592,1.481c0.371,0.37,0.963,0.593,1.481,0.593
	c0.593,0,1.111-0.223,1.481-0.593c0.371-0.37,0.593-0.963,0.593-1.481c0-0.593-0.222-1.111-0.593-1.481
	C34.769,54.861,34.25,54.639,33.657,54.639z M67.436,54.639c-0.593,0-1.111,0.223-1.482,0.593c-0.369,0.37-0.592,0.963-0.592,1.481
	c0,0.593,0.223,1.111,0.592,1.481c0.371,0.37,0.963,0.593,1.482,0.593c0.592,0,1.111-0.223,1.48-0.593
	c0.371-0.37,0.594-0.963,0.594-1.481c0-0.593-0.223-1.111-0.594-1.481C68.547,54.861,67.953,54.639,67.436,54.639z M79.139,47.083
	c-0.148-0.222-0.444-0.296-0.666-0.445L59.51,40.343c-0.594-0.223-1.26-0.074-1.704,0.444l-3.704,3.704h-8.814l-2.519-5.037h9.926
	c0.963,0,1.704-0.741,1.704-1.704s-0.741-1.704-1.704-1.704H40.027c0,0,0,0-0.074,0c-0.073,0-0.147,0-0.296,0h-0.073
	c-0.148,0-0.223,0.074-0.371,0.148L18.176,46.787c-0.592,0.296-0.963,0.889-0.963,1.481v6.296c0,0.445,0.148,0.889,0.519,1.186
	l2.074,2.074c0.296,0.296,0.741,0.519,1.185,0.519c0.445,0,0.889-0.148,1.186-0.519c0.667-0.667,0.667-1.704,0-2.371l-1.629-1.629
	v-4.593l18.666-9.333l3.481,6.963c0.296,0.592,0.89,0.963,1.481,0.963h10.519c0.444,0,0.89-0.148,1.185-0.519l3.482-3.481
	l17.629,5.852l3.408,3.408v2.814l-1.63,1.629c-0.667,0.667-0.667,1.704,0,2.371c0.296,0.296,0.741,0.518,1.185,0.518
	c0.445,0,0.89-0.147,1.186-0.518l2.074-2.074c0.297-0.297,0.519-0.74,0.519-1.186v-4.223c0-0.443-0.147-0.889-0.519-1.185
	L79.139,47.083z M23.139,39.454c0.963,0,1.704-0.741,1.704-1.704s-0.741-1.704-1.704-1.704h-4.223c-0.963,0-1.703,0.741-1.703,1.704
	s0.74,1.704,1.703,1.704H23.139z M40.027,31.009c0.963,0,1.704-0.741,1.704-1.704s-0.741-1.704-1.704-1.704H27.361
	c-0.963,0-1.704,0.741-1.704,1.704s0.741,1.704,1.704,1.704H40.027z"/>
</svg>
